<?xml version="1.0" encoding="UTF-8"?>
<svg version="1.1" xmlns="http://www.w3.org/2000/svg" width="2048" height="2048">
<path d="M0 0 C2.57985926 0.26821279 5.1608861 0.52181349 7.74243164 0.77325439 C92.44978185 9.0981055 174.77295618 28.6612249 387.76977539 120.68927002 C390.66463407 122.38748107 393.5726156 124.06166863 396.48266602 125.73370361 C440.15293676 150.89635961 481.62447821 179.84204301 520.61547852 211.76495361 C522.20840966 213.06732865 523.80608622 214.36389518 525.40454102 215.65948486 C536.06446113 224.31283178 546.46458071 233.23820511 556.52172852 242.58526611 C558.76913936 244.64288221 561.03627222 246.65958636 563.33422852 248.65948486 C575.74631755 259.48683435 587.40778979 271.1231101 599.06079102 282.75323486 C599.67120239 283.36105804 600.28161377 283.96888123 600.91052246 284.59512329 C612.60376741 296.24924922 612.60376741 296.24924922 617.90991211 302.47784424 C620.64857504 305.66433333 623.55460515 308.69608958 626.43579102 311.75323486 C631.20176967 316.83902347 635.92235313 321.94033152 640.43579102 327.25323486 C641.21696289 328.16718018 641.99813477 329.08112549 642.80297852 330.02276611 C645.69742034 333.41883965 648.57034811 336.83267356 651.43579102 340.25323486 C651.98187012 340.90501709 652.52794922 341.55679932 653.09057617 342.22833252 C661.22363949 351.96058062 669.09731642 361.85526086 676.7277832 371.98614502 C678.53477473 374.38461891 680.34853958 376.77788594 682.16235352 379.17120361 C737.88632981 452.87203356 782.52974613 534.52631638 870.68579102 860.81573486 C870.76292328 861.56046051 870.84005554 862.30518616 870.91952515 863.07247925 C871.50378578 868.79355367 871.99085431 874.51972795 872.43579102 880.25323486 C872.56659561 881.92194138 872.56659561 881.92194138 872.70004272 883.62435913 C874.46859599 906.9777033 874.79974794 930.27237861 874.75384903 953.68565369 C874.74820529 956.61015884 874.74538708 959.5346582 874.74276733 962.45916748 C874.70777718 989.3252343 874.49677844 1016.07205853 871.68902588 1042.81744385 C871.42081309 1045.39730311 871.16721239 1047.97832994 870.91577148 1050.55987549 C861.9871073 1141.41116808 840.60879704 1230.50064742 774.43579102 1386.25323486 C773.91484863 1387.32235107 773.39390625 1388.39146729 772.85717773 1389.49298096 C766.08095915 1403.39174366 758.86510889 1416.95949569 751.11987305 1430.34259033 C749.40323917 1433.30949509 747.69858834 1436.28308221 745.99438477 1439.25714111 C716.34843614 1490.76998796 681.39972803 1539.38658597 642.43579102 1584.25323486 C641.7796582 1585.01120361 641.12352539 1585.76917236 640.44750977 1586.55010986 C636.63160611 1590.93620601 632.74399077 1595.25611872 628.84204102 1599.56573486 C626.90086774 1601.73379852 624.98292051 1603.91761343 623.07250977 1606.11260986 C612.21895955 1618.52825983 600.58018276 1630.2109386 588.93579102 1641.87823486 C588.32796783 1642.48864624 587.72014465 1643.09905762 587.09390259 1643.72796631 C575.43977666 1655.42121126 575.43977666 1655.42121126 569.21118164 1660.72735596 C566.02469255 1663.46601888 562.9929363 1666.372049 559.93579102 1669.25323486 C554.85000241 1674.01921352 549.74869436 1678.73979697 544.43579102 1683.25323486 C543.06487305 1684.42499268 543.06487305 1684.42499268 541.66625977 1685.62042236 C529.13065957 1696.3035878 516.48453104 1706.85650209 503.34887695 1716.79669189 C501.10034473 1718.50862952 498.86590689 1720.23825903 496.63110352 1721.96807861 C486.55020462 1729.746463 476.33444897 1737.20215629 465.77172852 1744.31182861 C462.55298033 1746.48031482 459.39062511 1748.70862718 456.25683594 1750.99761963 C446.31729294 1758.25730378 435.87411337 1764.74116673 425.43579102 1771.25323486 C424.656875 1771.73937256 423.87795898 1772.22551025 423.07543945 1772.72637939 C349.02331195 1818.78398852 269.34713119 1855.05559186 9.43579102 1913.56573486 C8.33622574 1913.67904648 8.33622574 1913.67904648 7.21444702 1913.79464722 C1.62734942 1914.36042624 -3.96494468 1914.82570454 -9.56420898 1915.25323486 C-10.67485718 1915.33937042 -11.78550537 1915.42550598 -12.92980957 1915.51425171 C-35.9585406 1917.24521063 -58.92167742 1917.61778224 -82.00919342 1917.57129288 C-84.8592179 1917.56564568 -87.70923641 1917.5628295 -90.55926514 1917.56021118 C-117.48199504 1917.52426591 -144.27746853 1917.22802032 -171.08605957 1914.50323486 C-173.67200216 1914.2423605 -176.25899814 1913.99490789 -178.84643555 1913.74932861 C-222.53470011 1909.55391048 -265.83926851 1902.26715676 -308.56420898 1892.25323486 C-309.36503906 1892.0660791 -310.16586914 1891.87892334 -310.9909668 1891.68609619 C-350.91796527 1882.31323736 -390.3361848 1870.11586863 -428.56420898 1855.25323486 C-429.28723206 1854.9721991 -430.01025513 1854.69116333 -430.75518799 1854.40161133 C-474.71026706 1837.26650005 -518.20559661 1817.74616291 -558.91137695 1793.80841064 C-561.76587066 1792.13501428 -564.63448773 1790.48775901 -567.50561523 1788.84307861 C-619.04948817 1759.21410363 -667.68470217 1724.22833819 -712.56420898 1685.25323486 C-713.32217773 1684.59710205 -714.08014648 1683.94096924 -714.86108398 1683.26495361 C-719.24718014 1679.44904996 -723.56709284 1675.56143462 -727.87670898 1671.65948486 C-730.04477264 1669.71831159 -732.22858755 1667.80036435 -734.42358398 1665.88995361 C-746.83923395 1655.0364034 -758.52191273 1643.3976266 -770.18920898 1631.75323486 C-770.79962036 1631.14541168 -771.41003174 1630.5375885 -772.03894043 1629.91134644 C-783.73218538 1618.25722051 -783.73218538 1618.25722051 -789.03833008 1612.02862549 C-791.77699301 1608.8421364 -794.68302312 1605.81038014 -797.56420898 1602.75323486 C-802.33018764 1597.66744626 -807.0507711 1592.56613821 -811.56420898 1587.25323486 C-812.34538086 1586.33928955 -813.12655273 1585.42534424 -813.93139648 1584.48370361 C-816.82583831 1581.08763007 -819.69876608 1577.67379617 -822.56420898 1574.25323486 C-823.38332764 1573.27556152 -823.38332764 1573.27556152 -824.21899414 1572.27813721 C-832.35205746 1562.5458891 -840.22573438 1552.65120886 -847.85620117 1542.52032471 C-849.6631927 1540.12185082 -851.47695754 1537.72858379 -853.29077148 1535.33526611 C-908.18694233 1462.7292961 -953.04983849 1382.09312915 -1041.87670898 1053.31573486 C-1041.95225006 1052.58091888 -1042.02779114 1051.84610291 -1042.10562134 1051.08901978 C-1042.67165643 1045.48288315 -1043.13563836 1039.871433 -1043.56420898 1034.25323486 C-1043.69341232 1032.59363739 -1043.69341232 1032.59363739 -1043.82522583 1030.9005127 C-1045.58820119 1007.5599261 -1045.92818656 984.28088369 -1045.882267 960.88051987 C-1045.87662336 957.95891006 -1045.87380498 955.03730607 -1045.8711853 952.11569214 C-1045.83571751 924.90477394 -1045.61983705 897.79744949 -1042.81744385 870.70465088 C-1042.55212638 868.1362704 -1042.29776644 865.56693997 -1042.04418945 862.99737549 C-1033.31581664 775.72796988 -1013.23547455 689.76177551 -945.56420898 528.25323486 C-944.78279541 526.64956055 -944.78279541 526.64956055 -943.9855957 525.01348877 C-936.71494694 510.10059589 -928.87456443 495.61034021 -920.56420898 481.25323486 C-919.42863296 479.27546177 -918.29321779 477.29759631 -917.15795898 475.31964111 C-905.5974317 455.25906253 -893.47375809 435.58993949 -880.20874023 416.60821533 C-878.4865626 414.14204469 -876.77497584 411.66873854 -875.06420898 409.19464111 C-867.78981242 398.70358641 -860.30869246 388.40146454 -852.56420898 378.25323486 C-851.72680667 377.14788938 -850.88956107 376.04242514 -850.05249023 374.93682861 C-843.89591125 366.83788536 -837.49653215 358.94437228 -831.05249023 351.07354736 C-829.7501152 349.48061622 -828.45354866 347.88293966 -827.15795898 346.28448486 C-818.50461207 335.62456475 -809.57923873 325.22444517 -800.23217773 315.16729736 C-798.17456164 312.91988652 -796.15785748 310.65275366 -794.15795898 308.35479736 C-783.33060949 295.94270833 -771.69433375 284.28123609 -760.06420898 272.62823486 C-759.4563858 272.01782349 -758.84856262 271.40741211 -758.22232056 270.77850342 C-746.56819463 259.08525847 -746.56819463 259.08525847 -740.33959961 253.77911377 C-737.15311052 251.04045084 -734.12135426 248.13442072 -731.06420898 245.25323486 C-725.97842038 240.48725621 -720.87711233 235.76667275 -715.56420898 231.25323486 C-714.65026367 230.47206299 -713.73631836 229.69089111 -712.79467773 228.88604736 C-709.3986042 225.99160554 -705.98477029 223.11867777 -702.56420898 220.25323486 C-701.91242676 219.70715576 -701.26064453 219.16107666 -700.58911133 218.59844971 C-690.85686322 210.46538639 -680.96218299 202.59170946 -670.83129883 194.96124268 C-668.43282494 193.15425115 -666.03955791 191.3404863 -663.64624023 189.52667236 C-591.04027022 134.63050152 -510.40410327 89.76760535 -175.85498047 0.46612549 C-173.60487309 0.25701394 -171.35707797 0.03120031 -169.10913086 -0.19989014 C-113.80454353 -5.81319838 -55.28696431 -5.80407102 0 0 Z M358.23300171 386.31707764 C357.64765656 386.90444702 357.0623114 387.49181641 356.45922852 388.09698486 C355.85575592 388.69950073 355.25228333 389.3020166 354.63052368 389.92279053 C353.34644484 391.20618658 352.0636371 392.49085543 350.78198242 393.77667236 C348.84344086 395.72049606 346.89972295 397.65902423 344.95532227 399.59698486 C339.57335555 404.97633974 334.26211407 410.33657013 329.33276367 416.13800049 C323.88744249 422.20984897 317.91266802 427.82114971 312.11499023 433.55352783 C304.29762767 441.18834771 304.29762767 441.18834771 296.93579102 449.25323486 C291.11908304 456.09599567 284.49607571 462.24431299 278.11499023 468.55352783 C270.29762767 476.18834771 270.29762767 476.18834771 262.93579102 484.25323486 C257.11908304 491.09599567 250.49607571 497.24431299 244.11499023 503.55352783 C236.29762767 511.18834771 236.29762767 511.18834771 228.93579102 519.25323486 C223.11908304 526.09599567 216.49607571 532.24431299 210.11499023 538.55352783 C201.46883137 547.10434427 201.46883137 547.10434427 193.33227539 556.13409424 C188.07222182 562.01170302 182.2959472 567.43836543 176.68774414 572.98077393 C169.10577722 580.39214773 169.10577722 580.39214773 161.96704102 588.22198486 C156.13607535 595.07265143 149.50699275 601.23351891 143.11499023 607.55352783 C135.29762767 615.18834771 135.29762767 615.18834771 127.93579102 623.25323486 C122.11908304 630.09599567 115.49607571 636.24431299 109.11499023 642.55352783 C101.29762767 650.18834771 101.29762767 650.18834771 93.93579102 658.25323486 C88.11908304 665.09599567 81.49607571 671.24431299 75.11499023 677.55352783 C67.29762767 685.18834771 67.29762767 685.18834771 59.93579102 693.25323486 C54.11908304 700.09599567 47.49607571 706.24431299 41.11499023 712.55352783 C33.29762767 720.18834771 33.29762767 720.18834771 25.93579102 728.25323486 C20.11908304 735.09599567 13.49607571 741.24431299 7.11499023 747.55352783 C-0.70237233 755.18834771 -0.70237233 755.18834771 -8.06420898 763.25323486 C-13.88091696 770.09599567 -20.50392429 776.24431299 -26.88500977 782.55352783 C-34.70237233 790.18834771 -34.70237233 790.18834771 -42.06420898 798.25323486 C-47.88091696 805.09599567 -54.50392429 811.24431299 -60.88500977 817.55352783 C-68.70237233 825.18834771 -68.70237233 825.18834771 -76.06420898 833.25323486 C-81.88091696 840.09599567 -88.50392429 846.24431299 -94.88500977 852.55352783 C-102.70237233 860.18834771 -102.70237233 860.18834771 -110.06420898 868.25323486 C-115.88091696 875.09599567 -122.50392429 881.24431299 -128.88500977 887.55352783 C-136.70237233 895.18834771 -136.70237233 895.18834771 -144.06420898 903.25323486 C-149.88091696 910.09599567 -156.50392429 916.24431299 -162.88500977 922.55352783 C-170.70237233 930.18834771 -170.70237233 930.18834771 -178.06420898 938.25323486 C-183.88091696 945.09599567 -190.50392429 951.24431299 -196.88500977 957.55352783 C-204.70237233 965.18834771 -204.70237233 965.18834771 -212.06420898 973.25323486 C-217.88091696 980.09599567 -224.50392429 986.24431299 -230.88500977 992.55352783 C-238.70237233 1000.18834771 -238.70237233 1000.18834771 -246.06420898 1008.25323486 C-251.88091696 1015.09599567 -258.50392429 1021.24431299 -264.88500977 1027.55352783 C-273.53142735 1036.10231776 -273.53142735 1036.10231776 -281.66821289 1045.13018799 C-286.37004585 1050.39507847 -291.49338461 1055.28240748 -296.50170898 1060.25323486 C-297.67446907 1061.42096861 -298.84699696 1062.5889356 -300.01928711 1063.75714111 C-302.86492587 1066.59186721 -305.71368352 1069.42342311 -308.56420898 1072.25323486 C-311.68745443 1070.86694242 -313.80611605 1069.25811916 -316.20874023 1066.83917236 C-316.88614258 1066.15983643 -317.56354492 1065.48050049 -318.26147461 1064.78057861 C-318.95950195 1064.07030518 -319.6575293 1063.36003174 -320.37670898 1062.62823486 C-321.06313477 1061.94116455 -321.74956055 1061.25409424 -322.45678711 1060.54620361 C-325.66474891 1057.3109271 -328.77998056 1054.04423736 -331.73217773 1050.57354736 C-337.14959878 1044.29750166 -343.172612 1038.57847436 -349.06420898 1032.75323486 C-362.40888728 1019.55885865 -362.40888728 1019.55885865 -367.66772461 1013.37237549 C-372.38361416 1008.10281816 -377.53612129 1003.22233382 -382.56420898 998.25323486 C-395.34821354 985.61921025 -395.34821354 985.61921025 -399.03295898 981.28448486 C-404.31486225 975.07889901 -410.27400325 969.47822509 -416.06420898 963.75323486 C-429.37951286 950.58790223 -429.37951286 950.58790223 -434.63647461 944.40362549 C-439.52361098 938.95201744 -444.85963261 933.89919172 -450.06420898 928.75323486 C-463.40888728 915.55885865 -463.40888728 915.55885865 -468.66772461 909.37237549 C-473.38361416 904.10281816 -478.53612129 899.22233382 -483.56420898 894.25323486 C-496.34877021 881.61866011 -496.34877021 881.61866011 -500.00952148 877.30792236 C-505.41109569 870.95998969 -511.51770538 865.234667 -517.43920898 859.37823486 C-519.89779969 856.94620301 -522.35307202 854.51089009 -524.80639648 852.07354736 C-525.65160355 851.24078781 -525.65160355 851.24078781 -526.5138855 850.39120483 C-530.45144786 846.47875712 -530.45144786 846.47875712 -531.56420898 844.25323486 C-534.5550051 845.58393059 -536.50232878 846.99039547 -538.69677734 849.40924072 C-539.29422256 850.05832901 -539.89166779 850.7074173 -540.50721741 851.37617493 C-541.15379807 852.08712814 -541.80037872 852.79808136 -542.46655273 853.53057861 C-548.85956452 860.44035889 -555.39704669 867.17802309 -562.06811523 873.81964111 C-562.9700058 874.71822845 -563.87189636 875.6168158 -564.80111694 876.54263306 C-567.57432902 879.30233958 -570.35007617 882.05947032 -573.12670898 884.81573486 C-576.83948997 888.5013838 -580.54844738 892.19084607 -584.25561523 895.88214111 C-585.0879921 896.70621964 -585.92036896 897.53029816 -586.77796936 898.37934875 C-590.30572377 901.89232827 -593.76003226 905.41384637 -597.00341797 909.19244385 C-601.35639769 914.25226779 -606.10706694 918.90104525 -610.84545898 923.59698486 C-611.82789276 924.57499905 -612.81002386 925.55331737 -613.79187012 926.53192139 C-617.40140217 930.1282247 -621.01641604 933.71900082 -624.63128662 937.30993652 C-627.69801649 940.35679065 -630.76258812 943.40578613 -633.82444763 946.45753479 C-635.24412056 947.87082116 -636.66687897 949.28100597 -638.08972168 950.69110107 C-641.86580492 954.45297484 -645.59149838 958.20762741 -649.06420898 962.25323486 C-653.39289585 967.29602992 -658.12756194 971.92135663 -662.84545898 976.59698486 C-663.82789276 977.57499905 -664.81002386 978.55331737 -665.79187012 979.53192139 C-669.40140217 983.1282247 -673.01641604 986.71900082 -676.63128662 990.30993652 C-679.69801649 993.35679065 -682.76258812 996.40578613 -685.82444763 999.45753479 C-687.24412056 1000.87082116 -688.66687897 1002.28100597 -690.08972168 1003.69110107 C-693.86580492 1007.45297484 -697.59149838 1011.20762741 -701.06420898 1015.25323486 C-705.39289585 1020.29602992 -710.12756194 1024.92135663 -714.84545898 1029.59698486 C-715.82789276 1030.57499905 -716.81002386 1031.55331737 -717.79187012 1032.53192139 C-721.40140217 1036.1282247 -725.01641604 1039.71900082 -728.63128662 1043.30993652 C-731.69801649 1046.35679065 -734.76258812 1049.40578613 -737.82444763 1052.45753479 C-739.24412056 1053.87082116 -740.66687897 1055.28100597 -742.08972168 1056.69110107 C-747.12823016 1061.71064953 -751.9768487 1066.81666482 -756.56420898 1072.25323486 C-751.18244928 1078.73717895 -745.28886798 1084.58966275 -739.28491211 1090.49346924 C-735.83738737 1093.90602332 -732.45530601 1097.3119802 -729.31030273 1101.00714111 C-724.08385343 1107.0894714 -718.26408674 1112.62022718 -712.56420898 1118.25323486 C-699.78020443 1130.88725948 -699.78020443 1130.88725948 -696.09545898 1135.22198486 C-690.81355572 1141.42757072 -684.85441472 1147.02824464 -679.06420898 1152.75323486 C-665.74890511 1165.91856749 -665.74890511 1165.91856749 -660.49194336 1172.10284424 C-655.60480699 1177.55445229 -650.26878536 1182.60727801 -645.06420898 1187.75323486 C-631.74890511 1200.91856749 -631.74890511 1200.91856749 -626.49194336 1207.10284424 C-621.60480699 1212.55445229 -616.26878536 1217.60727801 -611.06420898 1222.75323486 C-597.74890511 1235.91856749 -597.74890511 1235.91856749 -592.49194336 1242.10284424 C-587.60480699 1247.55445229 -582.26878536 1252.60727801 -577.06420898 1257.75323486 C-563.74890511 1270.91856749 -563.74890511 1270.91856749 -558.49194336 1277.10284424 C-553.60480699 1282.55445229 -548.26878536 1287.60727801 -543.06420898 1292.75323486 C-529.74890511 1305.91856749 -529.74890511 1305.91856749 -524.49194336 1312.10284424 C-519.60480699 1317.55445229 -514.26878536 1322.60727801 -509.06420898 1327.75323486 C-495.74890511 1340.91856749 -495.74890511 1340.91856749 -490.49194336 1347.10284424 C-485.60480699 1352.55445229 -480.26878536 1357.60727801 -475.06420898 1362.75323486 C-461.74890511 1375.91856749 -461.74890511 1375.91856749 -456.49194336 1382.10284424 C-451.60480699 1387.55445229 -446.26878536 1392.60727801 -441.06420898 1397.75323486 C-427.74890511 1410.91856749 -427.74890511 1410.91856749 -422.49194336 1417.10284424 C-417.60480699 1422.55445229 -412.26878536 1427.60727801 -407.06420898 1432.75323486 C-393.74890511 1445.91856749 -393.74890511 1445.91856749 -388.49194336 1452.10284424 C-383.60480699 1457.55445229 -378.26878536 1462.60727801 -373.06420898 1467.75323486 C-359.74890511 1480.91856749 -359.74890511 1480.91856749 -354.49194336 1487.10284424 C-349.60480699 1492.55445229 -344.26878536 1497.60727801 -339.06420898 1502.75323486 C-325.19423876 1516.4669866 -325.19423876 1516.4669866 -319.92895508 1522.66143799 C-318.09691677 1524.79826979 -316.13377238 1526.78138311 -314.12670898 1528.75323486 C-313.44737305 1529.42354736 -312.76803711 1530.09385986 -312.06811523 1530.78448486 C-311.57182617 1531.26917236 -311.07553711 1531.75385986 -310.56420898 1532.25323486 C-306.39161979 1530.61635884 -303.59995825 1527.55992518 -300.51342773 1524.43292236 C-299.93639603 1523.85543243 -299.35936432 1523.2779425 -298.7648468 1522.68295288 C-297.54463237 1521.4597212 -296.32684548 1520.23406381 -295.11132812 1519.00616455 C-293.27378139 1517.1505246 -291.4285236 1515.3028495 -289.58178711 1513.45635986 C-282.62815924 1506.5198571 -282.62815924 1506.5198571 -276.05249023 1499.22979736 C-270.23369427 1492.40025869 -263.61840841 1486.25614 -257.2434082 1479.95294189 C-248.59724934 1471.40212546 -248.59724934 1471.40212546 -240.46069336 1462.37237549 C-235.20063979 1456.49476671 -229.42436517 1451.0681043 -223.81616211 1445.5256958 C-216.23419519 1438.114322 -216.23419519 1438.114322 -209.09545898 1430.28448486 C-203.26449332 1423.4338183 -196.63541072 1417.27295082 -190.2434082 1410.95294189 C-182.42604563 1403.31812202 -182.42604563 1403.31812202 -175.06420898 1395.25323486 C-169.24750101 1388.41047406 -162.62449368 1382.26215674 -156.2434082 1375.95294189 C-148.42604563 1368.31812202 -148.42604563 1368.31812202 -141.06420898 1360.25323486 C-135.24750101 1353.41047406 -128.62449368 1347.26215674 -122.2434082 1340.95294189 C-114.42604563 1333.31812202 -114.42604563 1333.31812202 -107.06420898 1325.25323486 C-101.24750101 1318.41047406 -94.62449368 1312.26215674 -88.2434082 1305.95294189 C-80.42604563 1298.31812202 -80.42604563 1298.31812202 -73.06420898 1290.25323486 C-67.24750101 1283.41047406 -60.62449368 1277.26215674 -54.2434082 1270.95294189 C-46.42604563 1263.31812202 -46.42604563 1263.31812202 -39.06420898 1255.25323486 C-33.24750101 1248.41047406 -26.62449368 1242.26215674 -20.2434082 1235.95294189 C-11.59724934 1227.40212546 -11.59724934 1227.40212546 -3.46069336 1218.37237549 C1.79936021 1212.49476671 7.57563483 1207.0681043 13.18383789 1201.5256958 C20.76580481 1194.114322 20.76580481 1194.114322 27.90454102 1186.28448486 C33.73550668 1179.4338183 40.36458928 1173.27295082 46.7565918 1166.95294189 C54.57395437 1159.31812202 54.57395437 1159.31812202 61.93579102 1151.25323486 C67.75249899 1144.41047406 74.37550632 1138.26215674 80.7565918 1131.95294189 C88.57395437 1124.31812202 88.57395437 1124.31812202 95.93579102 1116.25323486 C101.75249899 1109.41047406 108.37550632 1103.26215674 114.7565918 1096.95294189 C122.57395437 1089.31812202 122.57395437 1089.31812202 129.93579102 1081.25323486 C135.75249899 1074.41047406 142.37550632 1068.26215674 148.7565918 1061.95294189 C156.57395437 1054.31812202 156.57395437 1054.31812202 163.93579102 1046.25323486 C169.75249899 1039.41047406 176.37550632 1033.26215674 182.7565918 1026.95294189 C190.57395437 1019.31812202 190.57395437 1019.31812202 197.93579102 1011.25323486 C203.75249899 1004.41047406 210.37550632 998.26215674 216.7565918 991.95294189 C225.40275066 983.40212546 225.40275066 983.40212546 233.53930664 974.37237549 C238.79936021 968.49476671 244.57563483 963.0681043 250.18383789 957.5256958 C257.76580481 950.114322 257.76580481 950.114322 264.90454102 942.28448486 C270.73550668 935.4338183 277.36458928 929.27295082 283.7565918 922.95294189 C291.57395437 915.31812202 291.57395437 915.31812202 298.93579102 907.25323486 C304.75249899 900.41047406 311.37550632 894.26215674 317.7565918 887.95294189 C325.57395437 880.31812202 325.57395437 880.31812202 332.93579102 872.25323486 C338.75249899 865.41047406 345.37550632 859.26215674 351.7565918 852.95294189 C359.57395437 845.31812202 359.57395437 845.31812202 366.93579102 837.25323486 C372.75249899 830.41047406 379.37550632 824.26215674 385.7565918 817.95294189 C393.57395437 810.31812202 393.57395437 810.31812202 400.93579102 802.25323486 C406.75249899 795.41047406 413.37550632 789.26215674 419.7565918 782.95294189 C427.57395437 775.31812202 427.57395437 775.31812202 434.93579102 767.25323486 C440.75249899 760.41047406 447.37550632 754.26215674 453.7565918 747.95294189 C461.57395437 740.31812202 461.57395437 740.31812202 468.93579102 732.25323486 C474.75249899 725.41047406 481.37550632 719.26215674 487.7565918 712.95294189 C496.40275066 704.40212546 496.40275066 704.40212546 504.53930664 695.37237549 C509.79936021 689.49476671 515.57563483 684.0681043 521.18383789 678.5256958 C528.76580481 671.114322 528.76580481 671.114322 535.90454102 663.28448486 C541.73550668 656.4338183 548.36458928 650.27295082 554.7565918 643.95294189 C563.6115151 635.20709512 563.6115151 635.20709512 571.94604492 625.97003174 C574.44569416 623.08941334 577.15570808 620.42649085 579.87329102 617.75323486 C580.41405273 617.21698486 580.95481445 616.68073486 581.51196289 616.12823486 C582.81755718 614.8341945 584.12632098 613.54335313 585.43579102 612.25323486 C574.78310508 599.52919333 563.12296146 587.8412165 551.33300781 576.18731689 C542.53128619 567.46753547 542.53128619 567.46753547 539.01782227 563.33526611 C533.71367985 557.11636648 527.7435555 551.49558607 521.93579102 545.75323486 C508.61974338 532.58716685 508.61974338 532.58716685 504.96704102 528.28448486 C499.53817301 521.89797803 493.39017733 516.14313324 487.43579102 510.25323486 C473.55898917 496.52672329 473.55898917 496.52672329 468.34594727 490.38604736 C463.46710995 484.93851122 458.1342466 479.89313986 452.93579102 474.75323486 C439.62048714 461.58790223 439.62048714 461.58790223 434.36352539 455.40362549 C429.47638902 449.95201744 424.14036739 444.89919172 418.93579102 439.75323486 C405.61974338 426.58716685 405.61974338 426.58716685 401.96704102 422.28448486 C396.53817301 415.89797803 390.39017733 410.14313324 384.43579102 404.25323486 C381.95360096 401.79792773 379.47373292 399.34034644 376.99829102 396.87823486 C376.41273437 396.29590088 375.82717773 395.71356689 375.22387695 395.11358643 C371.50013319 391.38556986 367.94124372 387.56710487 364.57250977 383.51104736 C364.19739258 383.09596924 363.82227539 382.68089111 363.43579102 382.25323486 C361.2062989 382.25323486 359.73397991 384.82489517 358.23300171 386.31707764 Z " fill="#42A046" transform="translate(1109.564208984375,66.74676513671875)"/>
</svg>
