<svg width="60" height="60" viewBox="0 0 60 60" fill="none" xmlns="http://www.w3.org/2000/svg">
  <circle cx="30" cy="30" r="28" fill="#2C5F5D" opacity="0.1"/>
  <rect x="15" y="20" width="30" height="25" rx="2" fill="#2C5F5D"/>
  <rect x="18" y="23" width="6" height="4" rx="1" fill="#7FB069"/>
  <rect x="26" y="23" width="6" height="4" rx="1" fill="#7FB069"/>
  <rect x="34" y="23" width="6" height="4" rx="1" fill="#7FB069"/>
  <rect x="18" y="29" width="6" height="4" rx="1" fill="#7FB069"/>
  <rect x="26" y="29" width="6" height="4" rx="1" fill="#7FB069"/>
  <rect x="34" y="29" width="6" height="4" rx="1" fill="#7FB069"/>
  <rect x="18" y="35" width="6" height="4" rx="1" fill="#7FB069"/>
  <rect x="26" y="35" width="6" height="4" rx="1" fill="#7FB069"/>
  <rect x="34" y="35" width="6" height="4" rx="1" fill="#7FB069"/>
  <path d="M30 10C30 10 25 15 25 20C25 22 27 22 30 22C33 22 35 22 35 20C35 15 30 10 30 10Z" fill="#F4A261"/>
  <circle cx="30" cy="15" r="2" fill="#FFFFFF"/>
</svg>


