<svg width="60" height="60" viewBox="0 0 60 60" fill="none" xmlns="http://www.w3.org/2000/svg">
  <circle cx="30" cy="30" r="28" fill="#2C5F5D" opacity="0.1"/>
  <path d="M30 12C30 12 25 17 25 27C25 32 27.5 34.5 30 34.5C32.5 34.5 35 32 35 27C35 17 30 12 30 12Z" fill="#2C5F5D"/>
  <path d="M20 37C20 37 15 42 15 52C15 54.5 17.5 57 20 57C22.5 57 25 54.5 25 52C25 42 20 37 20 37Z" fill="#7FB069"/>
  <path d="M40 37C40 37 45 42 45 52C45 54.5 42.5 57 40 57C37.5 57 35 54.5 35 52C35 42 40 37 40 37Z" fill="#7FB069"/>
  <circle cx="30" cy="27" r="4" fill="#F4A261"/>
  <path d="M30 20C30 20 28 18 26 20C24 22 26 25 30 25C34 25 36 22 34 20C32 18 30 20 30 20Z" fill="#F4A261" opacity="0.7"/>
  <path d="M30 40C30 40 25 45 25 50C25 52 27 52 30 52C33 52 35 52 35 50C35 45 30 40 30 40Z" fill="#F4A261" opacity="0.5"/>
</svg>


