<svg width="60" height="60" viewBox="0 0 60 60" fill="none" xmlns="http://www.w3.org/2000/svg">
  <circle cx="30" cy="30" r="28" fill="#2C5F5D" opacity="0.1"/>
  <path d="M30 15C30 15 20 20 20 30C20 40 25 45 30 45C35 45 40 40 40 30C40 20 30 15 30 15Z" fill="#2C5F5D"/>
  <path d="M15 25C15 25 10 30 10 35C10 40 12.5 42.5 15 42.5C17.5 42.5 20 40 20 35C20 30 15 25 15 25Z" fill="#7FB069"/>
  <path d="M45 25C45 25 50 30 50 35C50 40 47.5 42.5 45 42.5C42.5 42.5 40 40 40 35C40 30 45 25 45 25Z" fill="#7FB069"/>
  <circle cx="25" cy="20" r="2" fill="#F4A261"/>
  <circle cx="35" cy="18" r="1.5" fill="#F4A261"/>
  <circle cx="20" cy="15" r="1" fill="#F4A261"/>
  <circle cx="40" cy="16" r="1" fill="#F4A261"/>
  <path d="M30 35C30 35 28 37 30 40C32 37 30 35 30 35Z" fill="#F4A261"/>
  <path d="M30 25C30 25 28 27 30 30C32 27 30 25 30 25Z" fill="#F4A261" opacity="0.7"/>
</svg>


